# xmcd
#
# Track frame offsets: 
#        150
#        17408
#        28632
#        43620
#        61162
#        76757
#        96540
#        113725
#        119602
#        130637
#        144374
#
# Disc length: 2062 seconds
#
# Revision: 0
# Processed by: cddbd v1.5.2PL0 Copyright (c) Steve Scherf et al.
# Submitted via: ExactAudioCopyFreeDBPlugin 1.0
#
DISCID=86080c0b
DTITLE=Sérgio Sampaio - Sinceramente
DYEAR=1900
DGENRE=
TTITLE0=Homem de trinta
TTITLE1=Na captura
TTITLE2=Tolo fui eu
TTITLE3=Só para o seu coração
TTITLE4=Essa tal de mentira
TTITLE5=Meu filho, minha filha
TTITLE6=Cabra cega
TTITLE7=Sinceramente
TTITLE8=Nem assim
TTITLE9=Doce Melodia
TTITLE10=Faixa seis
EXTD=
EXTT0=
EXTT1=
EXTT2=
EXTT3=
EXTT4=
EXTT5=
EXTT6=
EXTT7=
EXTT8=
EXTT9=
EXTT10=
PLAYORDER=
